<mxfile host="app.diagrams.net" modified="2024-05-01T21:07:26.040Z" agent="Mozilla/5.0 (Windows NT 10.0; Win64; x64) AppleWebKit/537.36 (KHTML, like Gecko) Chrome/124.0.0.0 Safari/537.36" etag="yH-ZCbPscHiuIec58p8s" version="24.3.1" type="github">
  <diagram name="Page-1" id="-JmPSKRnMrMWsj_3Vqf4">
    <mxGraphModel dx="1050" dy="522" grid="1" gridSize="10" guides="1" tooltips="1" connect="1" arrows="1" fold="1" page="1" pageScale="1" pageWidth="850" pageHeight="1100" math="0" shadow="0">
      <root>
        <mxCell id="0" />
        <mxCell id="1" parent="0" />
        <mxCell id="tSlhT_HpqHAOAED0eipg-1" value="" style="ellipse;whiteSpace=wrap;html=1;aspect=fixed;fillColor=#000000;" parent="1" vertex="1">
          <mxGeometry x="413" y="70" width="25" height="25" as="geometry" />
        </mxCell>
        <mxCell id="tSlhT_HpqHAOAED0eipg-2" value="&lt;font style=&quot;font-size: 24px;&quot;&gt;Planejar Alimentos&lt;/font&gt;" style="text;html=1;align=center;verticalAlign=middle;whiteSpace=wrap;rounded=0;" parent="1" vertex="1">
          <mxGeometry x="323" y="20" width="205" height="30" as="geometry" />
        </mxCell>
        <mxCell id="tSlhT_HpqHAOAED0eipg-3" value="Visualizar Informações" style="rounded=1;whiteSpace=wrap;html=1;" parent="1" vertex="1">
          <mxGeometry x="353.5" y="130" width="144" height="40" as="geometry" />
        </mxCell>
        <mxCell id="tSlhT_HpqHAOAED0eipg-4" value="" style="endArrow=none;html=1;rounded=0;entryX=0.5;entryY=1;entryDx=0;entryDy=0;" parent="1" target="tSlhT_HpqHAOAED0eipg-1" edge="1">
          <mxGeometry width="50" height="50" relative="1" as="geometry">
            <mxPoint x="426" y="130" as="sourcePoint" />
            <mxPoint x="450" y="220" as="targetPoint" />
          </mxGeometry>
        </mxCell>
        <mxCell id="tSlhT_HpqHAOAED0eipg-5" value="Sugerir plano de agua" style="rounded=1;whiteSpace=wrap;html=1;" parent="1" vertex="1">
          <mxGeometry x="353.5" y="200" width="144" height="40" as="geometry" />
        </mxCell>
        <mxCell id="tSlhT_HpqHAOAED0eipg-6" value="Sugerir plano de adubagem" style="rounded=1;whiteSpace=wrap;html=1;" parent="1" vertex="1">
          <mxGeometry x="353.5" y="270" width="144" height="40" as="geometry" />
        </mxCell>
        <mxCell id="tSlhT_HpqHAOAED0eipg-9" value="Editar informações" style="rounded=1;whiteSpace=wrap;html=1;" parent="1" vertex="1">
          <mxGeometry x="353.5" y="340" width="144" height="40" as="geometry" />
        </mxCell>
        <mxCell id="tSlhT_HpqHAOAED0eipg-10" value="Salvar" style="rounded=1;whiteSpace=wrap;html=1;" parent="1" vertex="1">
          <mxGeometry x="353.5" y="410" width="144" height="40" as="geometry" />
        </mxCell>
        <mxCell id="tSlhT_HpqHAOAED0eipg-14" value="" style="endArrow=none;html=1;rounded=0;entryX=0.5;entryY=1;entryDx=0;entryDy=0;exitX=0.5;exitY=0;exitDx=0;exitDy=0;" parent="1" source="tSlhT_HpqHAOAED0eipg-5" target="tSlhT_HpqHAOAED0eipg-3" edge="1">
          <mxGeometry width="50" height="50" relative="1" as="geometry">
            <mxPoint x="330" y="210" as="sourcePoint" />
            <mxPoint x="380" y="160" as="targetPoint" />
          </mxGeometry>
        </mxCell>
        <mxCell id="tSlhT_HpqHAOAED0eipg-15" value="" style="endArrow=none;html=1;rounded=0;entryX=0.5;entryY=1;entryDx=0;entryDy=0;exitX=0.5;exitY=0;exitDx=0;exitDy=0;" parent="1" source="tSlhT_HpqHAOAED0eipg-6" target="tSlhT_HpqHAOAED0eipg-5" edge="1">
          <mxGeometry width="50" height="50" relative="1" as="geometry">
            <mxPoint x="220" y="330" as="sourcePoint" />
            <mxPoint x="270" y="280" as="targetPoint" />
          </mxGeometry>
        </mxCell>
        <mxCell id="tSlhT_HpqHAOAED0eipg-16" value="" style="endArrow=none;html=1;rounded=0;entryX=0.5;entryY=1;entryDx=0;entryDy=0;exitX=0.5;exitY=0;exitDx=0;exitDy=0;" parent="1" source="tSlhT_HpqHAOAED0eipg-9" target="tSlhT_HpqHAOAED0eipg-6" edge="1">
          <mxGeometry width="50" height="50" relative="1" as="geometry">
            <mxPoint x="400" y="350" as="sourcePoint" />
            <mxPoint x="450" y="300" as="targetPoint" />
          </mxGeometry>
        </mxCell>
        <mxCell id="tSlhT_HpqHAOAED0eipg-17" value="" style="endArrow=none;html=1;rounded=0;entryX=0.5;entryY=1;entryDx=0;entryDy=0;exitX=0.5;exitY=0;exitDx=0;exitDy=0;" parent="1" source="tSlhT_HpqHAOAED0eipg-10" target="tSlhT_HpqHAOAED0eipg-9" edge="1">
          <mxGeometry width="50" height="50" relative="1" as="geometry">
            <mxPoint x="200" y="470" as="sourcePoint" />
            <mxPoint x="250" y="420" as="targetPoint" />
          </mxGeometry>
        </mxCell>
        <mxCell id="tSlhT_HpqHAOAED0eipg-18" value="" style="endArrow=none;html=1;rounded=0;entryX=0.5;entryY=1;entryDx=0;entryDy=0;exitX=0.5;exitY=0;exitDx=0;exitDy=0;" parent="1" source="tSlhT_HpqHAOAED0eipg-20" target="tSlhT_HpqHAOAED0eipg-10" edge="1">
          <mxGeometry width="50" height="50" relative="1" as="geometry">
            <mxPoint x="425.5" y="480" as="sourcePoint" />
            <mxPoint x="450" y="300" as="targetPoint" />
          </mxGeometry>
        </mxCell>
        <mxCell id="tSlhT_HpqHAOAED0eipg-20" value="" style="ellipse;whiteSpace=wrap;html=1;aspect=fixed;" parent="1" vertex="1">
          <mxGeometry x="399" y="482" width="53" height="53" as="geometry" />
        </mxCell>
        <mxCell id="tSlhT_HpqHAOAED0eipg-19" value="" style="ellipse;whiteSpace=wrap;html=1;aspect=fixed;fillColor=#000000;" parent="1" vertex="1">
          <mxGeometry x="413" y="496" width="25" height="25" as="geometry" />
        </mxCell>
      </root>
    </mxGraphModel>
  </diagram>
</mxfile>
